<svg
                                    width="23"
                                    height="23"
                                    viewBox="0 0 23 23"
                                    fill="none"
                                    xmlns="http://www.w3.org/2000/svg"
                                  >
                                    <path
                                      d="M20.4125 0.964111H2.979C1.78044 0.964111 0.799805 1.94475 0.799805 3.1433V20.5768C0.799805 21.7754 1.78044 22.756 2.979 22.756H20.4125C21.6111 22.756 22.5917 21.7754 22.5917 20.5768V3.1433C22.5917 1.94475 21.6111 0.964111 20.4125 0.964111ZM7.33738 19.4872H4.06859V9.68087H7.33738V19.4872ZM5.70298 7.82856C4.61339 7.82856 3.74171 6.95689 3.74171 5.86729C3.74171 4.77769 4.61339 3.90602 5.70298 3.90602C6.79258 3.90602 7.66425 4.77769 7.66425 5.86729C7.66425 6.95689 6.79258 7.82856 5.70298 7.82856ZM19.3229 19.4872H16.0541V13.7124C16.0541 12.8407 15.2914 12.078 14.4197 12.078C13.5481 12.078 12.7854 12.8407 12.7854 13.7124V19.4872H9.51657V9.68087H12.7854V10.9884C13.3301 10.1167 14.5287 9.46295 15.5093 9.46295C17.5796 9.46295 19.3229 11.2063 19.3229 13.2765V19.4872Z"
                                      fill="#0A0A1A"
                                    ></path>
                                </svg>